<svg width="170" height="58" viewBox="0 0 170 58" fill="none" xmlns="http://www.w3.org/2000/svg">
<rect width="170" height="58" rx="6" fill="#1A1A1A"/>
<mask id="mask0_590_1284" style="mask-type:alpha" maskUnits="userSpaceOnUse" x="0" y="0" width="170" height="58">
<rect width="170" height="58" rx="6" fill="white"/>
</mask>
<g mask="url(#mask0_590_1284)">
<path fill-rule="evenodd" clip-rule="evenodd" d="M32.5553 17.078C33.6407 15.7207 34.3834 13.874 34.1772 12C32.6062 12.0695 30.6416 13.0866 29.5102 14.4142C28.5093 15.5841 27.6151 17.5015 27.8461 19.3047C29.6108 19.4364 31.4227 18.4143 32.5553 17.078ZM36.5293 28.8486C36.4936 24.8759 39.7573 22.928 39.9542 22.8104L39.9582 22.8081C38.0817 20.0722 35.1732 19.6984 34.1511 19.6686C32.6567 19.5113 31.1896 20.0936 29.9909 20.5694C29.2302 20.8713 28.5776 21.1303 28.0945 21.1303C27.5445 21.1303 26.873 20.8605 26.1205 20.5581C25.1366 20.1627 24.0141 19.7117 22.8438 19.7357C20.1862 19.7766 17.7 21.3153 16.3364 23.7047C13.5223 28.5766 15.6211 35.736 18.3172 39.674C19.6659 41.6039 21.2418 43.7561 23.3046 43.6803C24.2407 43.6423 24.9048 43.3627 25.5909 43.0738C26.3838 42.74 27.2062 42.3937 28.5118 42.3937C29.7433 42.3937 30.5307 42.7289 31.2862 43.0505C32.0109 43.359 32.7063 43.655 33.7363 43.6306C35.9022 43.5984 37.2658 41.6946 38.5672 39.7473C40.1258 37.5392 40.7517 35.3597 40.7766 35.248C40.7269 35.2318 36.5716 33.6459 36.5293 28.8486ZM54.8938 13.0696H51.9785V21.7433H54.8938C57.4725 21.7433 58.9872 20.1384 58.9872 17.4034C58.9872 14.6745 57.4665 13.0696 54.8938 13.0696ZM53.0607 14.0433V20.7695H54.8219C56.7875 20.7695 57.8815 19.5673 57.8815 17.4154C57.8815 15.2455 56.7935 14.0433 54.8219 14.0433H53.0607ZM60.2694 18.6176C60.2694 20.6072 61.4355 21.8515 63.1667 21.8515C64.8918 21.8515 66.0579 20.6072 66.0579 18.6176C66.0579 16.622 64.8918 15.3838 63.1667 15.3838C61.4355 15.3838 60.2694 16.622 60.2694 18.6176ZM63.1663 20.9318C64.2723 20.9318 64.9936 20.0903 64.9936 18.6176C64.9936 17.145 64.2723 16.3034 63.1663 16.3034C62.0603 16.3034 61.333 17.145 61.333 18.6176C61.333 20.0903 62.0603 20.9318 63.1663 20.9318ZM73.729 21.7433L75.4721 15.4919H74.4383L73.188 20.5772H73.1639L71.7454 15.4919H70.7355L69.323 20.5772H69.2989L68.0487 15.4919H67.0088L68.758 21.7433H69.8219L71.2284 16.9045H71.2525L72.665 21.7433H73.729ZM76.7365 15.492H77.7223V16.4898H77.7463C78.0949 15.8165 78.7621 15.3838 79.7299 15.3838C81.1004 15.3838 81.8938 16.2674 81.8938 17.6859V21.7433H80.8479V17.8723C80.8479 16.8624 80.3731 16.3094 79.4113 16.3094C78.4255 16.3094 77.7824 17.0067 77.7824 18.0646V21.7433H76.7365V15.492ZM83.6867 13.0696V21.7433H84.7326V13.0696H83.6867ZM89.1462 21.8515C87.415 21.8515 86.2489 20.6072 86.2489 18.6176C86.2489 16.622 87.415 15.3838 89.1462 15.3838C90.8713 15.3838 92.0374 16.622 92.0374 18.6176C92.0374 20.6072 90.8713 21.8515 89.1462 21.8515ZM90.9731 18.6176C90.9731 20.0903 90.2518 20.9318 89.1458 20.9318C88.0398 20.9318 87.3125 20.0903 87.3125 18.6176C87.3125 17.145 88.0398 16.3034 89.1458 16.3034C90.2518 16.3034 90.9731 17.145 90.9731 18.6176ZM95.327 21.8515C94.0827 21.8515 93.2472 21.1001 93.2472 19.9761C93.2472 18.9061 94.0707 18.2329 95.5133 18.1488L97.3046 18.0466V17.5236C97.3046 16.7603 96.7997 16.3034 95.9341 16.3034C95.1286 16.3034 94.6237 16.6821 94.4915 17.2952H93.4816C93.5538 16.2133 94.4794 15.3838 95.9581 15.3838C97.4248 15.3838 98.3505 16.1772 98.3505 17.4215V21.7433H97.3587V20.6673H97.3346C96.9619 21.3826 96.1685 21.8515 95.327 21.8515ZM97.305 19.369C97.305 20.2706 96.5476 20.9619 95.5618 20.9619C94.8104 20.9619 94.3115 20.5712 94.3115 19.9761C94.3115 19.387 94.7924 19.0143 95.6339 18.9602L97.305 18.8581V19.369ZM102.457 21.8515C100.864 21.8515 99.7822 20.5772 99.7822 18.6176C99.7822 16.6581 100.858 15.3838 102.433 15.3838C103.329 15.3838 104.05 15.8226 104.423 16.5078H104.447V13.0696H105.493V21.7433H104.495V20.6854H104.477C104.074 21.4067 103.359 21.8515 102.457 21.8515ZM100.853 18.6176C100.853 17.2051 101.55 16.3034 102.656 16.3034C103.732 16.3034 104.453 17.2231 104.453 18.6176C104.453 20.0182 103.732 20.9318 102.656 20.9318C101.55 20.9318 100.853 20.0362 100.853 18.6176ZM112.842 21.8515C111.11 21.8515 109.944 20.6072 109.944 18.6176C109.944 16.622 111.11 15.3838 112.842 15.3838C114.567 15.3838 115.733 16.622 115.733 18.6176C115.733 20.6072 114.567 21.8515 112.842 21.8515ZM114.668 18.6176C114.668 20.0903 113.947 20.9318 112.841 20.9318C111.735 20.9318 111.008 20.0903 111.008 18.6176C111.008 17.145 111.735 16.3034 112.841 16.3034C113.947 16.3034 114.668 17.145 114.668 18.6176ZM117.195 21.7433V15.492H118.181V16.4898H118.205C118.554 15.8165 119.221 15.3838 120.189 15.3838C121.559 15.3838 122.353 16.2674 122.353 17.6859V21.7433H121.307V17.8723C121.307 16.8624 120.832 16.3094 119.87 16.3094C118.884 16.3094 118.241 17.0067 118.241 18.0646V21.7433H117.195ZM128.408 13.9832H127.362V15.492H126.431V16.3515H127.362V20.1203C127.362 21.3225 127.807 21.7914 128.955 21.7914C129.202 21.7914 129.49 21.7733 129.616 21.7433V20.8657C129.544 20.8777 129.304 20.8958 129.184 20.8958C128.649 20.8958 128.408 20.6373 128.408 20.0662V16.3515H129.622V15.492H128.408V13.9832ZM131.199 21.7433V13.0696H132.245V16.4898H132.269C132.618 15.7925 133.303 15.3838 134.253 15.3838C135.623 15.3838 136.453 16.3094 136.453 17.704V21.7433H135.407V17.8963C135.407 16.9045 134.908 16.3094 133.928 16.3094C132.888 16.3094 132.245 17.0187 132.245 18.1007V21.7433H131.199ZM143.367 19.952H142.339C142.165 20.5411 141.582 20.9438 140.788 20.9438C139.664 20.9438 138.961 20.1564 138.961 18.9602V18.9001H143.445V18.5034C143.445 16.61 142.405 15.3838 140.716 15.3838C138.991 15.3838 137.885 16.7001 137.885 18.6417C137.885 20.6072 138.973 21.8515 140.764 21.8515C142.129 21.8515 143.187 21.046 143.367 19.952ZM140.698 16.2914C139.718 16.2914 139.033 17.0428 138.967 18.0827H142.363C142.339 17.0368 141.684 16.2914 140.698 16.2914ZM60.5926 38.5312L62.1074 43.0066H64.827L58.8484 26.4476H56.0713L50.0927 43.0066H52.7664L54.2812 38.5312H60.5926ZM57.4027 29.2017L54.9355 36.4656H59.9388L57.4716 29.2017H57.4027ZM78.2852 36.9705C78.2852 33.1492 76.2655 30.7394 73.2016 30.7394C71.4573 30.7394 70.0688 31.623 69.3573 33.0115H69.3114V30.9345H66.9131V47H69.3918V41.0213H69.4491C70.1377 42.3639 71.5147 43.2131 73.2475 43.2131C76.277 43.2131 78.2852 40.7918 78.2852 36.9705ZM72.5472 41.1131C74.5095 41.1131 75.7373 39.5066 75.7373 36.9705C75.7373 34.446 74.5095 32.8279 72.5472 32.8279C70.6538 32.8279 69.38 34.4804 69.38 36.9705C69.38 39.4836 70.6423 41.1131 72.5472 41.1131ZM92.1211 36.9705C92.1211 33.1492 90.1014 30.7394 87.0375 30.7394C85.2933 30.7394 83.9047 31.623 83.1933 33.0115H83.1474V30.9345H80.749V47H83.2277V41.0213H83.2851C83.9736 42.3639 85.3506 43.2131 87.0834 43.2131C90.1129 43.2131 92.1211 40.7918 92.1211 36.9705ZM86.384 41.1131C88.3463 41.1131 89.5741 39.5066 89.5741 36.9705C89.5741 34.446 88.3463 32.8279 86.384 32.8279C84.4906 32.8279 83.2168 34.4804 83.2168 36.9705C83.2168 39.4836 84.4791 41.1131 86.384 41.1131ZM102.008 38.3935H99.4717C99.6323 41.3886 102.111 43.282 105.783 43.282C109.708 43.282 112.175 41.3427 112.175 38.2443C112.175 35.823 110.763 34.4574 107.367 33.6542L105.542 33.2066C103.408 32.6788 102.536 31.9902 102.536 30.8198C102.536 29.3509 103.901 28.3411 105.898 28.3411C107.895 28.3411 109.26 29.3394 109.409 30.9919H111.911C111.831 28.1345 109.432 26.1722 105.932 26.1722C102.398 26.1722 99.9077 28.1345 99.9077 30.9919C99.9077 33.2984 101.319 34.7214 104.36 35.4558L106.506 35.9722C108.652 36.5001 109.558 37.2689 109.558 38.5541C109.558 40.0345 108.055 41.1131 105.967 41.1131C103.786 41.1131 102.191 40.0345 102.008 38.3935ZM115.466 28.0771H117.956V30.9345H120.251V32.8968H117.956V39.5525C117.956 40.5968 118.415 41.0672 119.425 41.0672C119.677 41.0672 120.079 41.0443 120.239 41.0099V42.9722C119.964 43.041 119.413 43.0869 118.862 43.0869C116.418 43.0869 115.466 42.1574 115.466 39.8279V32.8968H113.71V30.9345H115.466V28.0771ZM122.016 36.9705C122.016 40.8607 124.288 43.2361 127.742 43.2361C131.196 43.2361 133.468 40.8607 133.468 36.9705C133.468 33.0919 131.184 30.7165 127.742 30.7165C124.299 30.7165 122.016 33.0919 122.016 36.9705ZM127.741 41.1935C129.692 41.1935 130.943 39.6558 130.943 36.9705C130.943 34.2968 129.681 32.7591 127.741 32.7591C125.802 32.7591 124.54 34.2968 124.54 36.9705C124.54 39.6558 125.802 41.1935 127.741 41.1935ZM138.307 30.9345H135.943V43.0066H138.422V35.7771C138.422 34.0673 139.409 33.0001 141.004 33.0001C141.486 33.0001 141.922 33.0574 142.117 33.1378V30.8312C141.933 30.7968 141.624 30.7394 141.268 30.7394C139.845 30.7394 138.766 31.5771 138.365 32.9886H138.307V30.9345ZM152.212 39.4607H154.565C154.221 41.6639 152.132 43.2361 149.367 43.2361C145.821 43.2361 143.675 40.8377 143.675 37.0279C143.675 33.241 145.855 30.7165 149.263 30.7165C152.614 30.7165 154.703 33.0804 154.703 36.741V37.5902H146.176V37.7394C146.176 39.8394 147.439 41.2279 149.424 41.2279C150.835 41.2279 151.88 40.5164 152.212 39.4607ZM146.188 35.8574C146.315 34.0329 147.531 32.7132 149.264 32.7132C150.997 32.7132 152.167 34.0099 152.224 35.8574H146.188Z" fill="#FEFEFE"/>
</g>
</svg>
